<svg xmlns="http://www.w3.org/2000/svg" version="1.1" xmlns:xlink="http://www.w3.org/1999/xlink" width="200" height="200"><svg xmlns="http://www.w3.org/2000/svg" version="1.1" xmlns:xlink="http://www.w3.org/1999/xlink" viewBox="0 0 200 200"><rect width="200" height="200" fill="url('#gradient')"></rect><defs><linearGradient id="SvgjsLinearGradient1001" gradientTransform="rotate(45 0.5 0.5)"><stop offset="0%" stop-color="#cfb04a"></stop><stop offset="100%" stop-color="#b83b25"></stop></linearGradient></defs><g><g fill="#0e2631" transform="matrix(1.941027801179444,0,0,1.941027801179444,10.054882074592484,110.41482397800951)" stroke="#0e4738" stroke-width="0.2"><path d="M3.77-14.22L6.59-3.87L9.42-14.22L13.25-14.22L8.47 0L4.72 0L-0.03-14.22L3.77-14.22ZM19.90-4.82L17.71-4.82L17.71 0L14.29 0L14.29-14.22L19.96-14.22Q21.59-14.22 22.85-13.62Q24.10-13.02 24.79-11.91Q25.48-10.80 25.48-9.39L25.48-9.39Q25.48-7.31 23.99-6.07Q22.50-4.82 19.90-4.82L19.90-4.82ZM17.71-11.57L17.71-7.47L19.96-7.47Q20.96-7.47 21.48-7.97Q22.00-8.47 22.00-9.38L22.00-9.38Q22.00-10.37 21.46-10.97Q20.93-11.56 20-11.57L20-11.57L17.71-11.57ZM33.58-7.40L33.58-4.85L27.71-4.85L27.71-7.40L33.58-7.40ZM41.91-4.82L39.73-4.82L39.73 0L36.30 0L36.30-14.22L41.97-14.22Q43.60-14.22 44.86-13.62Q46.11-13.02 46.80-11.91Q47.49-10.80 47.49-9.39L47.49-9.39Q47.49-7.31 46.00-6.07Q44.51-4.82 41.91-4.82L41.91-4.82ZM39.73-11.57L39.73-7.47L41.97-7.47Q42.97-7.47 43.49-7.97Q44.01-8.47 44.01-9.38L44.01-9.38Q44.01-10.37 43.48-10.97Q42.94-11.56 42.01-11.57L42.01-11.57L39.73-11.57ZM52.64-15L52.64 0L49.34 0L49.34-15L52.64-15ZM63.91 0L60.62 0Q60.44-0.32 60.30-0.95L60.30-0.95Q59.39 0.20 57.76 0.20L57.76 0.20Q56.27 0.20 55.22-0.71Q54.18-1.61 54.18-2.98L54.18-2.98Q54.18-4.70 55.45-5.58Q56.72-6.46 59.14-6.46L59.14-6.46L60.16-6.46L60.16-7.01Q60.16-8.47 58.90-8.47L58.90-8.47Q57.72-8.47 57.72-7.31L57.72-7.31L54.43-7.31Q54.43-8.85 55.74-9.80Q57.04-10.76 59.06-10.76Q61.08-10.76 62.26-9.78Q63.43-8.79 63.46-7.07L63.46-7.07L63.46-2.39Q63.48-0.94 63.91-0.17L63.91-0.17L63.91 0ZM58.55-2.15L58.55-2.15Q59.17-2.15 59.58-2.41Q59.98-2.68 60.16-3.01L60.16-3.01L60.16-4.70L59.20-4.70Q57.48-4.70 57.48-3.15L57.48-3.15Q57.48-2.71 57.78-2.43Q58.09-2.15 58.55-2.15ZM67.69-10.57L69.36-4.61L71.11-10.57L74.64-10.57L70.33 1.77L70.15 2.22Q69.23 4.27 66.90 4.27L66.90 4.27Q66.26 4.27 65.55 4.07L65.55 4.07L65.55 1.72L65.98 1.72Q66.67 1.72 67.04 1.52Q67.40 1.32 67.58 0.80L67.58 0.80L67.84 0.10L64.17-10.57L67.69-10.57ZM80.48 0.20L80.48 0.20Q78.05 0.20 76.54-1.25Q75.04-2.71 75.04-5.03L75.04-5.03L75.04-5.30Q75.04-6.92 75.64-8.16Q76.24-9.40 77.39-10.08Q78.54-10.76 80.13-10.76L80.13-10.76Q82.35-10.76 83.64-9.38Q84.93-8.00 84.93-5.53L84.93-5.53L84.93-4.25L78.39-4.25Q78.56-3.36 79.16-2.85Q79.76-2.34 80.70-2.34L80.70-2.34Q82.27-2.34 83.14-3.44L83.14-3.44L84.65-1.66Q84.03-0.81 82.91-0.31Q81.78 0.20 80.48 0.20ZM80.11-8.22L80.11-8.22Q78.66-8.22 78.39-6.31L78.39-6.31L81.71-6.31L81.71-6.56Q81.73-7.35 81.31-7.79Q80.89-8.22 80.11-8.22ZM92.71-10.64L92.65-7.59L91.56-7.67Q90.01-7.67 89.57-6.69L89.57-6.69L89.57 0L86.28 0L86.28-10.57L89.37-10.57L89.47-9.21Q90.30-10.76 91.79-10.76L91.79-10.76Q92.31-10.76 92.71-10.64L92.71-10.64Z"></path></g></g></svg><style>@media (prefers-color-scheme: light) { :root { filter: none; } }
@media (prefers-color-scheme: dark) { :root { filter: none; } }
</style></svg>